<svg width="335" height="140" viewBox="0 0 335 140" fill="none" xmlns="http://www.w3.org/2000/svg">
<rect x="0.5" y="0.5" width="334" height="139" rx="4.5" fill="white"/>
<path d="M96.8555 70.0017C96.8555 47.5601 129.644 30.8491 167.492 30.8491C205.34 30.8491 238.145 47.5601 238.145 70.0017C238.145 92.4502 205.34 109.12 167.492 109.12C129.644 109.12 96.8555 92.4502 96.8555 70.0017Z" fill="white"/>
<path fill-rule="evenodd" clip-rule="evenodd" d="M167.492 29C207.515 29 240 47.3718 240 70.0017C240 92.6351 207.515 111 167.492 111C127.485 111 95 92.6351 95 70.0017C95 47.3718 127.485 29 167.492 29ZM167.492 32.6983C129.509 32.6983 98.66 49.4435 98.66 70.0017C98.66 90.5685 129.509 107.274 167.492 107.274C205.475 107.274 236.323 90.5685 236.323 70.0017C236.323 49.4435 205.475 32.6983 167.492 32.6983ZM154.757 73.938H140.489C140.657 77.5028 142.631 79.1551 145.582 79.1551C147.775 79.1551 149.276 77.9017 149.664 76.6399H154.336C153.138 80.9529 149.664 82.9493 145.38 82.9493C139.308 82.9493 135.53 78.7082 135.53 72.6505C135.53 66.7828 139.527 62.314 145.38 62.314C151.958 62.314 155.129 67.918 154.757 73.938ZM145.245 66.0089C142.276 66.0089 140.758 68.0139 140.522 70.5787H149.782C149.428 67.8409 148.298 66.0089 145.245 66.0089ZM216.539 73.938H202.27C202.422 77.5028 204.412 79.1551 207.347 79.1551C209.556 79.1551 211.057 77.9017 211.445 76.6399H216.117C214.92 80.9529 211.445 82.9493 207.161 82.9493C201.072 82.9493 197.311 78.7082 197.311 72.6505C197.311 66.7828 201.309 62.314 207.161 62.314C213.739 62.314 216.91 67.918 216.539 73.938ZM207.009 66.0089C204.058 66.0089 202.54 68.0139 202.287 70.5787H211.563C211.209 67.8409 210.079 66.0089 207.009 66.0089ZM110.568 82.4185H115.864V70.7568H127.299V82.4185H132.595V55.3334H127.299V66.4233H115.864V55.3334H110.568V82.4185ZM157.675 82.4185H162.668V71.8303C162.668 67.8546 164.051 66.2264 166.918 66.2264C169.381 66.2264 170.494 67.817 170.494 71.0342V82.4185H175.469V70.3784C175.469 65.5329 174.053 62.314 168.402 62.314C166.176 62.314 163.848 63.3755 162.516 65.5706H162.398V62.8448H157.675V82.4185ZM179.72 82.4185H184.695V71.8183L192.049 82.4185H198.239L190.143 71.4348L197.311 62.8448H191.374L184.695 71.2841V55.3334H179.72V82.4185ZM219.457 82.4185H224.432V55.3334H219.457V82.4185Z" fill="#EC1B23"/>
<rect x="0.5" y="0.5" width="334" height="139" rx="4.5" stroke="#EBEBF1"/>
</svg>
