<svg viewBox="0 0 24 24" xmlns="http://www.w3.org/2000/svg" fill-rule="evenodd" clip-rule="evenodd" stroke-linejoin="round" stroke-miterlimit="1.414"><path id="Artboard2" fill="none" d="M0 0h24v24H0z"/><path d="M4.93 4.93A9.969 9.969 0 0112 2c2.76 0 5.26 1.12 7.07 2.93l-2.828 2.828A5.981 5.981 0 0012 6a5.981 5.981 0 00-4.242 1.758L4.93 4.93z" fill="#eb4134"/><path d="M16.242 16.242l2.828 2.828A9.969 9.969 0 0112 22c-2.76 0-5.26-1.12-7.07-2.93l2.828-2.828A5.981 5.981 0 0012 18a5.981 5.981 0 004.242-1.758z" fill="#34aa51"/><path d="M4.93 4.93l2.828 2.828A5.981 5.981 0 006 12c0 1.656.672 3.156 1.758 4.242L4.93 19.07A9.969 9.969 0 012 12c0-2.76 1.12-5.26 2.93-7.07z" fill="#fbbe04"/><path d="M12 10h9.8a10.057 10.057 0 010 4 9.992 9.992 0 01-2.73 5.07l-2.828-2.828A6 6 0 0017.658 14H12v-4z" fill="#4186f7"/></svg>