<svg version="1.1" id="Layer_1" xmlns="http://www.w3.org/2000/svg" x="0" y="0" viewBox="0 0 500 500" xml:space="preserve"><path d="M134.1 78.5c23.1-3 47 2.2 66.7 14.4 11.1 6.6 20 16.1 29.1 25.1l19.8 19.5.2.6c-14.6 14.4-29.2 28.9-43.9 43.4-10.7-10.3-21.1-21.1-31.9-31.5-10.2-9.5-25.6-13.4-38.9-9-15.2 4.2-26.8 18.8-27.6 34.6-.6 8.2 1.6 16.6 6.1 23.5 2.7 4.5 6.8 7.8 10.4 11.6 8.7 8.7 17.6 17.3 26.2 26.1-14.6 14.4-29.4 28.7-43.9 43.3-11.5-10.9-22.6-22.3-34-33.3-13.6-14.2-22.7-32.6-25.9-52-3.4-20.8-.2-42.7 9.4-61.6 8.1-15.8 20.3-29.5 35.2-39.1 13-8.2 27.7-14 43-15.6z" fill="#ea4335"/><path d="M332.7 79.7c12.5-2.3 25.4-2.6 37.9-.6 29.3 5 56.2 23.2 71 49.1 16.8 28.4 17.8 65.3 2.8 94.7-6.2 12.6-15.6 23.3-25.7 33-8.3 8-16.2 16.5-24.7 24.3-14.6-14.5-29.4-28.9-43.9-43.5 10.4-10.5 20.9-20.7 31.3-31.2 6.7-6.8 10.9-16.1 11.3-25.6.5-10.9-3.8-21.9-11.7-29.4-8-7.6-19.2-11.9-30.3-11-9.5.5-18.7 4.8-25.4 11.5-25.1 24.7-50 49.6-75.1 74.4-14.7-14.5-29.5-29-44-43.6l-.1-.1c14.6-14.4 29.2-28.9 43.9-43.4 10.6-10.5 21.2-21 31.9-31.5 13.7-13.9 31.8-23 50.8-27.1z" fill="#4285f4"/><path d="M150.3 236.7c18.5-18.5 37.1-36.8 55.8-55.2 14.5 14.7 29.3 29.1 44 43.6-18.6 18.3-37.1 36.6-55.6 54.8-14.7 14.6-29.5 29.1-44.2 43.6-14.2-13.8-28.3-27.9-42.4-41.9-.4-.5-1.2-1.3-1.5-1.8 14.5-14.4 29.2-28.7 43.9-43.1z" fill="#fbbc05"/><path d="M250.2 335c33.4-32.8 66.5-65.8 99.9-98.5 14.6 14.6 29.2 29.1 43.9 43.5-47.9 47.5-95.9 94.9-143.8 142.2-33.3-32.8-66.6-65.7-99.7-98.7 14.7-14.6 29.5-29.1 44.2-43.6 18.4 18.4 36.9 36.8 55.5 55.1z" fill="#34a853"/></svg>