<svg width="335" height="140" fill="none" xmlns="http://www.w3.org/2000/svg"><rect x=".5" y=".5" width="334" height="139" rx="4.5" fill="#fff"/><path d="M96.856 70.002c0-22.442 32.788-39.153 70.636-39.153s70.653 16.711 70.653 39.153c0 22.448-32.805 39.118-70.653 39.118-37.848 0-70.636-16.67-70.636-39.118z" fill="#fff"/><path fill-rule="evenodd" clip-rule="evenodd" d="M167.492 29C207.515 29 240 47.372 240 70.002 240 92.635 207.515 111 167.492 111 127.485 111 95 92.635 95 70.002 95 47.372 127.485 29 167.492 29zm0 3.698c-37.983 0-68.832 16.745-68.832 37.304 0 20.567 30.849 37.272 68.832 37.272 37.983 0 68.831-16.706 68.831-37.272 0-20.558-30.848-37.304-68.831-37.304zm-12.735 41.24h-14.268c.168 3.565 2.142 5.217 5.093 5.217 2.193 0 3.694-1.253 4.082-2.515h4.672c-1.198 4.313-4.672 6.31-8.956 6.31-6.072 0-9.85-4.242-9.85-10.3 0-5.867 3.997-10.336 9.85-10.336 6.578 0 9.749 5.604 9.377 11.624zm-9.512-7.93c-2.969 0-4.487 2.006-4.723 4.57h9.26c-.354-2.737-1.484-4.57-4.537-4.57zm71.294 7.93H202.27c.152 3.565 2.142 5.217 5.077 5.217 2.209 0 3.71-1.253 4.098-2.515h4.672c-1.197 4.313-4.672 6.31-8.956 6.31-6.089 0-9.85-4.242-9.85-10.3 0-5.867 3.998-10.336 9.85-10.336 6.578 0 9.749 5.604 9.378 11.624zm-9.53-7.93c-2.951 0-4.469 2.006-4.722 4.57h9.276c-.354-2.737-1.484-4.57-4.554-4.57zm-96.441 16.41h5.296V70.757h11.435v11.661h5.296V55.333h-5.296v11.09h-11.435v-11.09h-5.296v27.085zm47.107 0h4.993V71.83c0-3.975 1.383-5.604 4.25-5.604 2.463 0 3.576 1.591 3.576 4.808v11.384h4.975v-12.04c0-4.845-1.416-8.064-7.067-8.064-2.226 0-4.554 1.062-5.886 3.257h-.118v-2.726h-4.723v19.573zm22.045 0h4.975v-10.6l7.354 10.6h6.19l-8.096-10.983 7.168-8.59h-5.937l-6.679 8.44V55.332h-4.975v27.085zm39.737 0h4.975V55.333h-4.975v27.085z" fill="#EC1B23"/><rect x=".5" y=".5" width="334" height="139" rx="4.5" stroke="#EBEBF1"/></svg>