<svg width="135" height="28" fill="none" xmlns="http://www.w3.org/2000/svg"><path fill-rule="evenodd" clip-rule="evenodd" d="M29.177 26.741h-7.082l-1.001-1.309a41.38 41.38 0 01-3.696 1.232c-1.077.23-2.232.385-3.54.385-4.312 0-7.7-1.078-10.086-3.157C1.232 21.737 0 18.427 0 14.192c0-4.31 1.155-7.621 3.387-9.854C5.697 2.106 9.161.951 13.857.951c4.542 0 8.007 1.232 10.393 3.618 2.079 2.079 3.08 4.773 3.08 8.007 0 2.386-.077 4.157-.308 5.235-.308 1.693-1.078 3.31-2.156 4.773l4.311 4.157zm-8.083-12.78c0-2.309-.462-4.157-1.463-5.62-1.232-1.847-3.233-2.77-5.85-2.77-2.464 0-4.389.692-5.62 2.155-1.232 1.386-1.848 3.464-1.848 6.159 0 3.002.693 5.234 2.155 6.62 1.309 1.232 3.234 1.848 5.774 1.848 2.31 0 4.003-.693 5.158-2.079 1.155-1.462 1.694-3.541 1.694-6.313zm34.797 4.851c0 2.232-.77 4.08-2.232 5.62-1.463 1.54-3.31 2.232-5.62 2.232H30.332v-4.542h14.704c1.001 0 1.848-.231 2.464-.693.77-.539 1.155-1.232 1.155-2.155 0-2.156-1.54-3.234-4.542-3.234h-7.39c-2.156 0-4.004-.693-5.62-2.001-1.617-1.31-2.387-3.003-2.387-5.081 0-2.233.77-4.08 2.386-5.466 1.54-1.386 3.619-2.079 6.236-2.079h17.014v4.311h-15.09c-.692 0-1.385.308-2 .847-.77.539-1.079 1.232-1.079 2.002 0 .846.308 1.616 1.001 2.155.693.616 1.463.847 2.387.847h8.16c2.54 0 4.542.693 6.005 2.002 1.463 1.308 2.155 3.079 2.155 5.235zm29.1-4.85c0 4.927-1.385 8.39-4.08 10.546-2.232 1.694-5.466 2.54-9.623 2.54-4.696 0-8.16-1-10.393-2.924-2.463-2.156-3.695-5.62-3.695-10.393 0-3.927 1.078-7.006 3.31-9.162 2.387-2.386 5.928-3.54 10.701-3.54 5.235 0 8.853 1.154 11.009 3.387 1.847 2.001 2.771 5.157 2.771 9.546zm-6.466-.154c0-2.464-.616-4.465-1.771-5.928-1.309-1.617-3.31-2.464-5.85-2.464-2.541 0-4.466.847-5.775 2.618-1.077 1.462-1.616 3.387-1.616 5.697 0 2.694.462 4.696 1.308 6.004 1.232 1.771 3.388 2.695 6.698 2.695 2.771 0 4.696-.847 5.774-2.618.847-1.231 1.232-3.31 1.232-6.004zm31.794 2.309H92.92v10.47h-6.236V11.113c0-.924.154-2.001.54-3.156.692-2.079 2-3.619 3.925-4.696 2.233-1.232 5.928-1.848 11.009-1.848h32.565v4.234h-9.393v20.94h-5.85V5.647c-6.005 0-11.702-.077-17.707-.077-2.31 0-3.926.154-4.85.385-1.616.385-2.694 1.309-3.387 2.618-.539 1-.77 2.078-.77 3.31h17.553v4.234z" fill="#BBC4D6"/></svg>