<svg id="Capa_1" version="1.1" viewBox="0 0 150 150" xml:space="preserve" xmlns="http://www.w3.org/2000/svg"><style/><path d="M50.4 48.2C64 48.2 75 59.2 75 72.8v2.3H28.1c-1.2 0-2.2-1-2.3-2.3.1-13.6 11.1-24.6 24.6-24.6z" fill="#f6b704"/><path d="M101.8 50.4c0 13.6-11 24.6-24.6 24.6H75V28.1c0-1.2 1-2.3 2.2-2.3 13.6.1 24.6 11.1 24.6 24.6z" fill="#e54335"/><path d="M99.6 101.8C86 101.8 75 90.8 75 77.3V75h46.9c1.2 0 2.3 1 2.3 2.2-.1 13.6-11.1 24.6-24.6 24.6z" fill="#4280ef"/><path d="M48.2 99.6C48.2 86 59.2 75 72.8 75H75v46.9c0 1.2-1 2.2-2.3 2.3-13.5-.1-24.5-11.1-24.5-24.6z" fill="#34a353"/></svg>